# Wavefront OBJ file automatically generated by Tiled2Unity

# Vertices (Count = 10)
v 0 -1.6 0
v -1.28 -1.6 0
v -1.28 0 0
v 0 0 0
v -0.32 -1.6 0
v -0.64 -1.6 0
v -0.64 -1.28 0
v -0.32 -1.28 0
v -0.96 -1.6 0
v -0.96 -1.28 0

# Texture cooridinates (Count = 12)
vt 0.0001220703 0.0001220703
vt 0.2498779 0.0001220703
vt 0.2498779 0.4998779
vt 0.0001220703 0.4998779
vt 0.0001220703 0.5001221
vt 0.2498779 0.5001221
vt 0.2498779 0.9998779
vt 0.0001220703 0.9998779
vt 0.8001221 0.0001220703
vt 0.9998779 0.0001220703
vt 0.9998779 0.1998779
vt 0.8001221 0.1998779

# Normal
vn 0 0 -1

# Groups (Count = 5)

g mesh_0001
f 1/1/1 2/2/1 3/3/1 4/4/1

g mesh_0002
f 1/5/1 2/6/1 3/7/1 4/8/1

g mesh_0003
f 5/9/1 6/10/1 7/11/1 8/12/1
f 6/9/1 9/10/1 10/11/1 7/12/1

