# Wavefront OBJ file automatically generated by Tiled2Unity

# Vertices (Count = 9)
v 0 -0.64 0
v -0.32 -0.64 0
v -0.32 -0.32 0
v 0 -0.32 0
v -0.64 -0.64 0
v -0.64 -0.32 0
v -0.32 0 0
v 0 0 0
v -0.64 0 0

# Texture cooridinates (Count = 12)
vt 0.5834554 0.06012207
vt 0.5971001 0.06012207
vt 0.5971001 0.07987793
vt 0.5834554 0.07987793
vt 0.5834554 0.08012207
vt 0.5971001 0.08012207
vt 0.5971001 0.09987793
vt 0.5834554 0.09987793
vt 0.8001221 0.0001220703
vt 0.9998779 0.0001220703
vt 0.9998779 0.1998779
vt 0.8001221 0.1998779

# Normal
vn 0 0 -1

# Groups (Count = 4)

g mesh_0001
f 1/1/1 2/2/1 3/3/1 4/4/1
f 2/1/1 5/2/1 6/3/1 3/4/1

g mesh_0002
f 4/5/1 3/6/1 7/7/1 8/8/1
f 3/5/1 6/6/1 9/7/1 7/8/1

g mesh_0003
f 1/9/1 2/10/1 3/11/1 4/12/1
f 2/9/1 5/10/1 6/11/1 3/12/1

