# Wavefront OBJ file automatically generated by Tiled2Unity

# Vertices (Count = 4)
v 0 -0.77 0
v -0.45 -0.77 0
v -0.45 0 0
v 0 0 0

# Texture cooridinates (Count = 16)
vt 0.0001220703 0.0001220703
vt 0.2498779 0.0001220703
vt 0.2498779 0.9998779
vt 0.0001220703 0.9998779
vt 0.2501221 0.0001220703
vt 0.4998779 0.0001220703
vt 0.4998779 0.9998779
vt 0.2501221 0.9998779
vt 0.5001221 0.0001220703
vt 0.7498779 0.0001220703
vt 0.7498779 0.9998779
vt 0.5001221 0.9998779
vt 0.7501221 0.0001220703
vt 0.9998779 0.0001220703
vt 0.9998779 0.9998779
vt 0.7501221 0.9998779

# Normal
vn 0 0 -1

# Groups (Count = 2)

g mesh_0001
f 1/1/1 2/2/1 3/3/1 4/4/1

g mesh_0002
f 1/5/1 2/6/1 3/7/1 4/8/1

g mesh_0003
f 1/9/1 2/10/1 3/11/1 4/12/1

g mesh_0004
f 1/13/1 2/14/1 3/15/1 4/16/1

